<svg 
 xmlns="http://www.w3.org/2000/svg"
 xmlns:xlink="http://www.w3.org/1999/xlink"
 width="32.5px" height="32.5px">
<path fill-rule="evenodd"  stroke="rgb(191, 191, 191)" stroke-width="1px" stroke-linecap="butt" stroke-linejoin="miter" fill="rgb(245, 248, 250)"
 d="M16.000,0.500 C24.560,0.500 31.500,7.440 31.500,16.000 L31.500,16.000 C31.500,24.560 24.560,31.500 16.000,31.500 C7.440,31.500 0.500,24.560 0.500,16.000 L0.500,16.000 C0.500,7.440 7.440,0.500 16.000,0.500 Z"/>
<path fill-rule="evenodd"  fill="rgb(53, 60, 72)"
 d="M20.697,9.245 C20.403,8.950 19.926,8.950 19.632,9.245 L18.523,10.354 C18.392,10.485 18.392,10.696 18.523,10.827 L20.401,12.706 C20.532,12.836 20.744,12.836 20.875,12.706 L21.984,11.596 C22.278,11.302 22.278,10.825 21.984,10.531 L20.697,9.245 ZM18.121,11.230 C17.990,11.098 17.778,11.099 17.647,11.230 L11.504,17.373 C11.374,17.503 11.373,17.715 11.504,17.846 L13.383,19.724 C13.513,19.855 13.725,19.855 13.856,19.724 L19.999,13.581 C20.130,13.451 20.130,13.239 19.999,13.108 L18.121,11.230 ZM11.148,18.295 C11.050,18.197 10.892,18.197 10.794,18.295 C10.722,18.366 9.830,21.031 9.797,21.133 C9.755,21.313 9.917,21.470 10.098,21.431 C10.194,21.400 12.862,20.506 12.934,20.435 C13.032,20.337 13.032,20.178 12.934,20.080 L11.148,18.295 Z"/>
</svg>