<svg 
 xmlns="http://www.w3.org/2000/svg"
 xmlns:xlink="http://www.w3.org/1999/xlink"
 width="41.5px" height="41.5px">
<defs>
<filter id="Filter_0">
    <feFlood flood-color="rgb(255, 255, 255)" flood-opacity="1" result="floodOut" />
    <feComposite operator="atop" in="floodOut" in2="SourceGraphic" result="compOut" />
    <feBlend mode="normal" in="compOut" in2="SourceGraphic" />
</filter>

</defs>
<path fill-rule="evenodd"  stroke="rgb(230, 234, 238)" stroke-width="1px" stroke-linecap="butt" stroke-linejoin="miter" fill="rgb(68, 68, 68)"
 d="M20.500,0.500 C31.546,0.500 40.500,9.454 40.500,20.500 L40.500,20.500 C40.500,31.546 31.546,40.500 20.500,40.500 C9.454,40.500 0.500,31.546 0.500,20.500 L0.500,20.500 C0.500,9.454 9.454,0.500 20.500,0.500 Z"/>
<g filter="url(#Filter_0)">
<path fill-rule="evenodd"  fill="rgb(53, 60, 72)"
 d="M26.560,11.783 C26.181,11.404 25.566,11.404 25.187,11.783 L23.755,13.215 C23.587,13.383 23.587,13.656 23.755,13.825 L26.179,16.249 C26.348,16.418 26.621,16.418 26.790,16.249 L28.221,14.818 C28.601,14.438 28.601,13.823 28.221,13.443 L26.560,11.783 ZM23.236,14.345 C23.068,14.175 22.794,14.176 22.626,14.345 L14.699,22.271 C14.530,22.440 14.530,22.712 14.699,22.882 L17.123,25.306 C17.291,25.474 17.565,25.474 17.733,25.306 L25.660,17.379 C25.829,17.210 25.829,16.937 25.660,16.768 L23.236,14.345 ZM14.240,23.461 C14.113,23.335 13.908,23.335 13.782,23.461 C13.689,23.553 12.539,26.992 12.496,27.123 C12.442,27.356 12.651,27.559 12.885,27.508 C13.008,27.467 16.451,26.314 16.544,26.223 C16.670,26.096 16.670,25.891 16.544,25.765 L14.240,23.461 Z"/>
</g>
</svg>